<svg xmlns="http://www.w3.org/2000/svg" width="160.908" height="188.973" viewBox="0 0 160.908 188.973"><defs><style>.a{fill:#27debf;}</style></defs><g transform="translate(0 0)"><rect class="a" width="3.742" height="2.807" transform="translate(157.166)"/><rect class="a" width="2.807" height="2.807" transform="translate(145.004)"/><rect class="a" width="2.807" height="2.807" transform="translate(132.842)"/><rect class="a" width="3.742" height="2.807" transform="translate(120.681)"/><rect class="a" width="2.807" height="2.807" transform="translate(109.455)"/><rect class="a" width="3.742" height="2.807" transform="translate(97.293)"/><rect class="a" width="3.742" height="2.807" transform="translate(85.131)"/><rect class="a" width="3.742" height="2.807" transform="translate(72.97)"/><rect class="a" width="3.742" height="2.807" transform="translate(60.808)"/><rect class="a" width="1.871" height="2.807" transform="translate(49.582)"/><rect class="a" width="1.871" height="2.807" transform="translate(37.42)"/><rect class="a" width="2.807" height="2.807" transform="translate(25.259)"/><rect class="a" width="3.742" height="2.807" transform="translate(12.162)"/><rect class="a" width="3.742" height="2.807"/></g><g transform="translate(0 47.711)"><rect class="a" width="3.742" height="3.742" transform="translate(157.166 0)"/><rect class="a" width="2.807" height="3.742" transform="translate(145.004 0)"/><rect class="a" width="2.807" height="3.742" transform="translate(132.842 0)"/><rect class="a" width="3.742" height="3.742" transform="translate(120.681 0)"/><rect class="a" width="2.807" height="3.742" transform="translate(109.455 0)"/><rect class="a" width="3.742" height="3.742" transform="translate(97.293 0)"/><rect class="a" width="3.742" height="3.742" transform="translate(85.131 0)"/><rect class="a" width="3.742" height="3.742" transform="translate(72.97 0)"/><rect class="a" width="3.742" height="3.742" transform="translate(60.808 0)"/><rect class="a" width="1.871" height="3.742" transform="translate(49.582 0)"/><rect class="a" width="1.871" height="3.742" transform="translate(37.42 0)"/><rect class="a" width="2.807" height="3.742" transform="translate(25.259 0)"/><rect class="a" width="3.742" height="3.742" transform="translate(12.162 0)"/><rect class="a" width="3.742" height="3.742" transform="translate(0 0)"/></g><g transform="translate(0 97.293)"><rect class="a" width="3.742" height="3.742" transform="translate(157.166 0)"/><rect class="a" width="2.807" height="3.742" transform="translate(145.004 0)"/><rect class="a" width="2.807" height="3.742" transform="translate(132.842 0)"/><rect class="a" width="3.742" height="3.742" transform="translate(120.681 0)"/><rect class="a" width="2.807" height="3.742" transform="translate(109.455 0)"/><rect class="a" width="3.742" height="3.742" transform="translate(97.293 0)"/><rect class="a" width="3.742" height="3.742" transform="translate(85.131 0)"/><rect class="a" width="3.742" height="3.742" transform="translate(72.97 0)"/><rect class="a" width="3.742" height="3.742" transform="translate(60.808 0)"/><rect class="a" width="1.871" height="3.742" transform="translate(49.582 0)"/><rect class="a" width="1.871" height="3.742" transform="translate(37.42 0)"/><rect class="a" width="2.807" height="3.742" transform="translate(25.259 0)"/><rect class="a" width="3.742" height="3.742" transform="translate(12.162 0)"/><rect class="a" width="3.742" height="3.742" transform="translate(0 0)"/></g><g transform="translate(0 145.939)"><rect class="a" width="3.742" height="3.742" transform="translate(157.166 0)"/><rect class="a" width="2.807" height="3.742" transform="translate(145.004 0)"/><rect class="a" width="2.807" height="3.742" transform="translate(132.842 0)"/><rect class="a" width="3.742" height="3.742" transform="translate(120.681 0)"/><rect class="a" width="2.807" height="3.742" transform="translate(109.455 0)"/><rect class="a" width="3.742" height="3.742" transform="translate(97.293 0)"/><rect class="a" width="3.742" height="3.742" transform="translate(85.131 0)"/><rect class="a" width="3.742" height="3.742" transform="translate(72.97 0)"/><rect class="a" width="3.742" height="3.742" transform="translate(60.808 0)"/><rect class="a" width="1.871" height="3.742" transform="translate(49.582 0)"/><rect class="a" width="1.871" height="3.742" transform="translate(37.42 0)"/><rect class="a" width="2.807" height="3.742" transform="translate(25.259 0)"/><rect class="a" width="3.742" height="3.742" transform="translate(12.162 0)"/><rect class="a" width="3.742" height="3.742" transform="translate(0 0)"/></g><g transform="translate(0 9.355)"><rect class="a" width="3.742" height="2.807" transform="translate(157.166 0)"/><rect class="a" width="2.807" height="2.807" transform="translate(145.004 0)"/><rect class="a" width="2.807" height="2.807" transform="translate(132.842 0)"/><rect class="a" width="3.742" height="2.807" transform="translate(120.681 0)"/><rect class="a" width="2.807" height="2.807" transform="translate(109.455 0)"/><rect class="a" width="3.742" height="2.807" transform="translate(97.293 0)"/><rect class="a" width="3.742" height="2.807" transform="translate(85.131 0)"/><rect class="a" width="3.742" height="2.807" transform="translate(72.97 0)"/><rect class="a" width="3.742" height="2.807" transform="translate(60.808 0)"/><rect class="a" width="1.871" height="2.807" transform="translate(49.582 0)"/><rect class="a" width="1.871" height="2.807" transform="translate(37.42 0)"/><rect class="a" width="2.807" height="2.807" transform="translate(25.259 0)"/><rect class="a" width="3.742" height="2.807" transform="translate(12.162 0)"/><rect class="a" width="3.742" height="2.807" transform="translate(0 0)"/></g><g transform="translate(0 58.937)"><rect class="a" width="3.742" height="1.871" transform="translate(157.166 0)"/><rect class="a" width="2.807" height="1.871" transform="translate(145.004 0)"/><rect class="a" width="2.807" height="1.871" transform="translate(132.842 0)"/><rect class="a" width="3.742" height="1.871" transform="translate(120.681 0)"/><rect class="a" width="2.807" height="1.871" transform="translate(109.455 0)"/><rect class="a" width="3.742" height="1.871" transform="translate(97.293 0)"/><rect class="a" width="3.742" height="1.871" transform="translate(85.131 0)"/><rect class="a" width="3.742" height="1.871" transform="translate(72.97 0)"/><rect class="a" width="3.742" height="1.871" transform="translate(60.808 0)"/><rect class="a" width="1.871" height="1.871" transform="translate(49.582 0)"/><rect class="a" width="1.871" height="1.871" transform="translate(37.42 0)"/><rect class="a" width="2.807" height="1.871" transform="translate(25.259 0)"/><rect class="a" width="3.742" height="1.871" transform="translate(12.162 0)"/><rect class="a" width="3.742" height="1.871" transform="translate(0 0)"/></g><g transform="translate(0 106.648)"><rect class="a" width="3.742" height="4.678" transform="translate(157.166 0)"/><rect class="a" width="2.807" height="4.678" transform="translate(145.004 0)"/><rect class="a" width="2.807" height="4.678" transform="translate(132.842 0)"/><rect class="a" width="3.742" height="4.678" transform="translate(120.681 0)"/><rect class="a" width="2.807" height="4.678" transform="translate(109.455 0)"/><rect class="a" width="3.742" height="4.678" transform="translate(97.293 0)"/><rect class="a" width="3.742" height="4.678" transform="translate(85.131 0)"/><rect class="a" width="3.742" height="4.678" transform="translate(72.97 0)"/><rect class="a" width="3.742" height="4.678" transform="translate(60.808 0)"/><rect class="a" width="1.871" height="4.678" transform="translate(49.582 0)"/><rect class="a" width="1.871" height="4.678" transform="translate(37.42 0)"/><rect class="a" width="2.807" height="4.678" transform="translate(25.259 0)"/><rect class="a" width="3.742" height="4.678" transform="translate(12.162 0)"/><rect class="a" width="3.742" height="4.678" transform="translate(0 0)"/></g><g transform="translate(0 156.23)"><rect class="a" width="3.742" height="2.807" transform="translate(157.166 0)"/><rect class="a" width="2.807" height="2.807" transform="translate(145.004 0)"/><rect class="a" width="2.807" height="2.807" transform="translate(132.842 0)"/><rect class="a" width="3.742" height="2.807" transform="translate(120.681 0)"/><rect class="a" width="2.807" height="2.807" transform="translate(109.455 0)"/><rect class="a" width="3.742" height="2.807" transform="translate(97.293 0)"/><rect class="a" width="3.742" height="2.807" transform="translate(85.131 0)"/><rect class="a" width="3.742" height="2.807" transform="translate(72.97 0)"/><rect class="a" width="3.742" height="2.807" transform="translate(60.808 0)"/><rect class="a" width="1.871" height="2.807" transform="translate(49.582 0)"/><rect class="a" width="1.871" height="2.807" transform="translate(37.42 0)"/><rect class="a" width="2.807" height="2.807" transform="translate(25.259 0)"/><rect class="a" width="3.742" height="2.807" transform="translate(12.162 0)"/><rect class="a" width="3.742" height="2.807" transform="translate(0 0)"/></g><g transform="translate(0 19.646)"><rect class="a" width="3.742" height="2.807" transform="translate(157.166 0)"/><rect class="a" width="2.807" height="2.807" transform="translate(145.004 0)"/><rect class="a" width="2.807" height="2.807" transform="translate(132.842 0)"/><rect class="a" width="3.742" height="2.807" transform="translate(120.681 0)"/><rect class="a" width="2.807" height="2.807" transform="translate(109.455 0)"/><rect class="a" width="3.742" height="2.807" transform="translate(97.293 0)"/><rect class="a" width="3.742" height="2.807" transform="translate(85.131 0)"/><rect class="a" width="3.742" height="2.807" transform="translate(72.97 0)"/><rect class="a" width="3.742" height="2.807" transform="translate(60.808 0)"/><rect class="a" width="1.871" height="2.807" transform="translate(49.582 0)"/><rect class="a" width="1.871" height="2.807" transform="translate(37.42 0)"/><rect class="a" width="2.807" height="2.807" transform="translate(25.259 0)"/><rect class="a" width="3.742" height="2.807" transform="translate(12.162 0)"/><rect class="a" width="3.742" height="2.807" transform="translate(0 0)"/></g><g transform="translate(0 68.292)"><rect class="a" width="3.742" height="3.742" transform="translate(157.166 0)"/><rect class="a" width="2.807" height="3.742" transform="translate(145.004 0)"/><rect class="a" width="2.807" height="3.742" transform="translate(132.842 0)"/><rect class="a" width="3.742" height="3.742" transform="translate(120.681 0)"/><rect class="a" width="2.807" height="3.742" transform="translate(109.455 0)"/><rect class="a" width="3.742" height="3.742" transform="translate(97.293 0)"/><rect class="a" width="3.742" height="3.742" transform="translate(85.131 0)"/><rect class="a" width="3.742" height="3.742" transform="translate(72.97 0)"/><rect class="a" width="3.742" height="3.742" transform="translate(60.808 0)"/><rect class="a" width="1.871" height="3.742" transform="translate(49.582 0)"/><rect class="a" width="1.871" height="3.742" transform="translate(37.42 0)"/><rect class="a" width="2.807" height="3.742" transform="translate(25.259 0)"/><rect class="a" width="3.742" height="3.742" transform="translate(12.162 0)"/><rect class="a" width="3.742" height="3.742" transform="translate(0 0)"/></g><g transform="translate(0 117.874)"><rect class="a" width="3.742" height="1.871" transform="translate(157.166 0)"/><rect class="a" width="2.807" height="1.871" transform="translate(145.004 0)"/><rect class="a" width="2.807" height="1.871" transform="translate(132.842 0)"/><rect class="a" width="3.742" height="1.871" transform="translate(120.681 0)"/><rect class="a" width="2.807" height="1.871" transform="translate(109.455 0)"/><rect class="a" width="3.742" height="1.871" transform="translate(97.293 0)"/><rect class="a" width="3.742" height="1.871" transform="translate(85.131 0)"/><rect class="a" width="3.742" height="1.871" transform="translate(72.97 0)"/><rect class="a" width="3.742" height="1.871" transform="translate(60.808 0)"/><rect class="a" width="1.871" height="1.871" transform="translate(49.582 0)"/><rect class="a" width="1.871" height="1.871" transform="translate(37.42 0)"/><rect class="a" width="2.807" height="1.871" transform="translate(25.259 0)"/><rect class="a" width="3.742" height="1.871" transform="translate(12.162 0)"/><rect class="a" width="3.742" height="1.871" transform="translate(0 0)"/></g><g transform="translate(0 165.585)"><rect class="a" width="3.742" height="3.742" transform="translate(157.166 0)"/><rect class="a" width="2.807" height="3.742" transform="translate(145.004 0)"/><rect class="a" width="2.807" height="3.742" transform="translate(132.842 0)"/><rect class="a" width="3.742" height="3.742" transform="translate(120.681 0)"/><rect class="a" width="2.807" height="3.742" transform="translate(109.455 0)"/><rect class="a" width="3.742" height="3.742" transform="translate(97.293 0)"/><rect class="a" width="3.742" height="3.742" transform="translate(85.131 0)"/><rect class="a" width="3.742" height="3.742" transform="translate(72.97 0)"/><rect class="a" width="3.742" height="3.742" transform="translate(60.808 0)"/><rect class="a" width="1.871" height="3.742" transform="translate(49.582 0)"/><rect class="a" width="1.871" height="3.742" transform="translate(37.42 0)"/><rect class="a" width="2.807" height="3.742" transform="translate(25.259 0)"/><rect class="a" width="3.742" height="3.742" transform="translate(12.162 0)"/><rect class="a" width="3.742" height="3.742" transform="translate(0 0)"/></g><g transform="translate(0 29.001)"><rect class="a" width="3.742" height="3.742" transform="translate(157.166 0)"/><rect class="a" width="2.807" height="3.742" transform="translate(145.004 0)"/><rect class="a" width="2.807" height="3.742" transform="translate(132.842 0)"/><rect class="a" width="3.742" height="3.742" transform="translate(120.681 0)"/><rect class="a" width="2.807" height="3.742" transform="translate(109.455 0)"/><rect class="a" width="3.742" height="3.742" transform="translate(97.293 0)"/><rect class="a" width="3.742" height="3.742" transform="translate(85.131 0)"/><rect class="a" width="3.742" height="3.742" transform="translate(72.97 0)"/><rect class="a" width="3.742" height="3.742" transform="translate(60.808 0)"/><rect class="a" width="1.871" height="3.742" transform="translate(49.582 0)"/><rect class="a" width="1.871" height="3.742" transform="translate(37.42 0)"/><rect class="a" width="2.807" height="3.742" transform="translate(25.259 0)"/><rect class="a" width="3.742" height="3.742" transform="translate(12.162 0)"/><rect class="a" width="3.742" height="3.742" transform="translate(0 0)"/></g><g transform="translate(0 77.647)"><rect class="a" width="3.742" height="3.742" transform="translate(157.166 0)"/><rect class="a" width="2.807" height="3.742" transform="translate(145.004 0)"/><rect class="a" width="2.807" height="3.742" transform="translate(132.842 0)"/><rect class="a" width="3.742" height="3.742" transform="translate(120.681 0)"/><rect class="a" width="2.807" height="3.742" transform="translate(109.455 0)"/><rect class="a" width="3.742" height="3.742" transform="translate(97.293 0)"/><rect class="a" width="3.742" height="3.742" transform="translate(85.131 0)"/><rect class="a" width="3.742" height="3.742" transform="translate(72.97 0)"/><rect class="a" width="3.742" height="3.742" transform="translate(60.808 0)"/><rect class="a" width="1.871" height="3.742" transform="translate(49.582 0)"/><rect class="a" width="1.871" height="3.742" transform="translate(37.42 0)"/><rect class="a" width="2.807" height="3.742" transform="translate(25.259 0)"/><rect class="a" width="3.742" height="3.742" transform="translate(12.162 0)"/><rect class="a" width="3.742" height="3.742" transform="translate(0 0)"/></g><g transform="translate(0 127.229)"><rect class="a" width="3.742" height="1.871" transform="translate(157.166 0)"/><rect class="a" width="2.807" height="1.871" transform="translate(145.004 0)"/><rect class="a" width="2.807" height="1.871" transform="translate(132.842 0)"/><rect class="a" width="3.742" height="1.871" transform="translate(120.681 0)"/><rect class="a" width="2.807" height="1.871" transform="translate(109.455 0)"/><rect class="a" width="3.742" height="1.871" transform="translate(97.293 0)"/><rect class="a" width="3.742" height="1.871" transform="translate(85.131 0)"/><rect class="a" width="3.742" height="1.871" transform="translate(72.97 0)"/><rect class="a" width="3.742" height="1.871" transform="translate(60.808 0)"/><rect class="a" width="1.871" height="1.871" transform="translate(49.582 0)"/><rect class="a" width="1.871" height="1.871" transform="translate(37.42 0)"/><rect class="a" width="2.807" height="1.871" transform="translate(25.259 0)"/><rect class="a" width="3.742" height="1.871" transform="translate(12.162 0)"/><rect class="a" width="3.742" height="1.871" transform="translate(0 0)"/></g><g transform="translate(0 175.876)"><rect class="a" width="3.742" height="2.807" transform="translate(157.166 0)"/><rect class="a" width="2.807" height="2.807" transform="translate(145.004 0)"/><rect class="a" width="2.807" height="2.807" transform="translate(132.842 0)"/><rect class="a" width="3.742" height="2.807" transform="translate(120.681 0)"/><rect class="a" width="2.807" height="2.807" transform="translate(109.455 0)"/><rect class="a" width="3.742" height="2.807" transform="translate(97.293 0)"/><rect class="a" width="3.742" height="2.807" transform="translate(85.131 0)"/><rect class="a" width="3.742" height="2.807" transform="translate(72.97 0)"/><rect class="a" width="3.742" height="2.807" transform="translate(60.808 0)"/><rect class="a" width="1.871" height="2.807" transform="translate(49.582 0)"/><rect class="a" width="1.871" height="2.807" transform="translate(37.42 0)"/><rect class="a" width="2.807" height="2.807" transform="translate(25.259 0)"/><rect class="a" width="3.742" height="2.807" transform="translate(12.162 0)"/><rect class="a" width="3.742" height="2.807" transform="translate(0 0)"/></g><g transform="translate(0 39.291)"><rect class="a" width="3.742" height="2.807" transform="translate(157.166 0)"/><rect class="a" width="2.807" height="2.807" transform="translate(145.004 0)"/><rect class="a" width="2.807" height="2.807" transform="translate(132.842 0)"/><rect class="a" width="3.742" height="2.807" transform="translate(120.681 0)"/><rect class="a" width="2.807" height="2.807" transform="translate(109.455 0)"/><rect class="a" width="3.742" height="2.807" transform="translate(97.293 0)"/><rect class="a" width="3.742" height="2.807" transform="translate(85.131 0)"/><rect class="a" width="3.742" height="2.807" transform="translate(72.97 0)"/><rect class="a" width="3.742" height="2.807" transform="translate(60.808 0)"/><rect class="a" width="1.871" height="2.807" transform="translate(49.582 0)"/><rect class="a" width="1.871" height="2.807" transform="translate(37.42 0)"/><rect class="a" width="2.807" height="2.807" transform="translate(25.259 0)"/><rect class="a" width="3.742" height="2.807" transform="translate(12.162 0)"/><rect class="a" width="3.742" height="2.807" transform="translate(0 0)"/></g><g transform="translate(0 88.873)"><rect class="a" width="3.742" height="1.871" transform="translate(157.166 0)"/><rect class="a" width="2.807" height="1.871" transform="translate(145.004 0)"/><rect class="a" width="2.807" height="1.871" transform="translate(132.842 0)"/><rect class="a" width="3.742" height="1.871" transform="translate(120.681 0)"/><rect class="a" width="2.807" height="1.871" transform="translate(109.455 0)"/><rect class="a" width="3.742" height="1.871" transform="translate(97.293 0)"/><rect class="a" width="3.742" height="1.871" transform="translate(85.131 0)"/><rect class="a" width="3.742" height="1.871" transform="translate(72.97 0)"/><rect class="a" width="3.742" height="1.871" transform="translate(60.808 0)"/><rect class="a" width="1.871" height="1.871" transform="translate(49.582 0)"/><rect class="a" width="1.871" height="1.871" transform="translate(37.42 0)"/><rect class="a" width="2.807" height="1.871" transform="translate(25.259 0)"/><rect class="a" width="3.742" height="1.871" transform="translate(12.162 0)"/><rect class="a" width="3.742" height="1.871" transform="translate(0 0)"/></g><g transform="translate(0 136.584)"><rect class="a" width="3.742" height="3.742" transform="translate(157.166 0)"/><rect class="a" width="2.807" height="3.742" transform="translate(145.004 0)"/><rect class="a" width="2.807" height="3.742" transform="translate(132.842 0)"/><rect class="a" width="3.742" height="3.742" transform="translate(120.681 0)"/><rect class="a" width="2.807" height="3.742" transform="translate(109.455 0)"/><rect class="a" width="3.742" height="3.742" transform="translate(97.293 0)"/><rect class="a" width="3.742" height="3.742" transform="translate(85.131 0)"/><rect class="a" width="3.742" height="3.742" transform="translate(72.97 0)"/><rect class="a" width="3.742" height="3.742" transform="translate(60.808 0)"/><rect class="a" width="1.871" height="3.742" transform="translate(49.582 0)"/><rect class="a" width="1.871" height="3.742" transform="translate(37.42 0)"/><rect class="a" width="2.807" height="3.742" transform="translate(25.259 0)"/><rect class="a" width="3.742" height="3.742" transform="translate(12.162 0)"/><rect class="a" width="3.742" height="3.742" transform="translate(0 0)"/></g><g transform="translate(0 185.231)"><rect class="a" width="3.742" height="3.742" transform="translate(157.166 0)"/><rect class="a" width="2.807" height="3.742" transform="translate(145.004 0)"/><rect class="a" width="2.807" height="3.742" transform="translate(132.842 0)"/><rect class="a" width="3.742" height="3.742" transform="translate(120.681 0)"/><rect class="a" width="2.807" height="3.742" transform="translate(109.455 0)"/><rect class="a" width="3.742" height="3.742" transform="translate(97.293 0)"/><rect class="a" width="3.742" height="3.742" transform="translate(85.131 0)"/><rect class="a" width="3.742" height="3.742" transform="translate(72.97 0)"/><rect class="a" width="3.742" height="3.742" transform="translate(60.808 0)"/><rect class="a" width="1.871" height="3.742" transform="translate(49.582 0)"/><rect class="a" width="1.871" height="3.742" transform="translate(37.42 0)"/><rect class="a" width="2.807" height="3.742" transform="translate(25.259 0)"/><rect class="a" width="3.742" height="3.742" transform="translate(12.162 0)"/><rect class="a" width="3.742" height="3.742" transform="translate(0 0)"/></g></svg>