<svg xmlns="http://www.w3.org/2000/svg" width="104.299" height="18.343" viewBox="0 0 104.299 18.343"><defs><style>.a{fill:#707070;}.b{fill:#fbbc04;}.c{fill:#4285f4;}.d{fill:#34a853;}</style></defs><g transform="translate(-793.203 -2559.177)"><path class="a" d="M935.26,877.863l4-10.653h1.544l4.014,10.647h-1.514l-1.027-2.886H937.8l-1.039,2.886Zm3.017-4.157h3.563l-1.758-4.84h-.059Zm10.4,4.4a3.207,3.207,0,0,1-2.441-1.116,4.24,4.24,0,0,1,0-5.534,3.207,3.207,0,0,1,2.441-1.116,3.1,3.1,0,0,1,1.5.356,2.523,2.523,0,0,1,.992.891h.059l-.059-1.009v-3.361h1.366v10.647h-1.306v-1.01h-.083a2.524,2.524,0,0,1-.992.891,3.1,3.1,0,0,1-1.5.356Zm.226-1.247a2.179,2.179,0,0,0,1.645-.713,3.058,3.058,0,0,0,0-3.836,2.233,2.233,0,0,0-3.278,0,3.011,3.011,0,0,0,0,3.824,2.179,2.179,0,0,0,1.639.724Zm7.928,1.247a3.272,3.272,0,0,1-2.013-.594,3.522,3.522,0,0,1-1.188-1.485l1.217-.5a2.019,2.019,0,0,0,1.977,1.366,1.781,1.781,0,0,0,1.051-.285.867.867,0,0,0,.41-.742q0-.713-1-.968l-1.473-.356a3.509,3.509,0,0,1-1.324-.677,1.633,1.633,0,0,1-.623-1.348,1.841,1.841,0,0,1,.855-1.568,3.437,3.437,0,0,1,2.031-.594,3.385,3.385,0,0,1,1.728.439,2.47,2.47,0,0,1,1.087,1.259l-1.188.493a1.615,1.615,0,0,0-1.669-.968,1.942,1.942,0,0,0-1.027.255.772.772,0,0,0-.416.683q0,.624.968.849l1.443.344a2.726,2.726,0,0,1,1.514.819,1.972,1.972,0,0,1,.493,1.307,2.025,2.025,0,0,1-.8,1.639,3.164,3.164,0,0,1-2.067.653Z" transform="translate(-62.182 1695.874)"/><g transform="translate(820.882 2561.923)"><path class="a" d="M853.566,877.283a6.015,6.015,0,1,1,0-12.025,5.677,5.677,0,0,1,4.157,1.681l-1.188,1.188a4.376,4.376,0,1,0-2.969,7.631,4.05,4.05,0,0,0,3.04-1.229,3.622,3.622,0,0,0,.9-2.067h-3.943v-1.615h5.564a5.225,5.225,0,0,1,.065,1.033,5.481,5.481,0,0,1-1.425,3.878,6.105,6.105,0,0,1-4.2,1.55Zm14.163-3.866a2.22,2.22,0,1,1,.006,0Zm-1.681,0a2.162,2.162,0,0,0-2.132-2.328,2.34,2.34,0,0,0,0,4.656A2.14,2.14,0,0,0,866.049,873.417Zm10.279,0a3.821,3.821,0,1,1-3.812-3.878,3.836,3.836,0,0,1,3.818,3.878Zm-1.681,0a2.161,2.161,0,0,0-2.132-2.328,2.34,2.34,0,0,0,0,4.656,2.162,2.162,0,0,0,2.132-2.328Zm10.024-3.622v6.983c0,2.844-1.68,4.074-3.688,4.074a3.711,3.711,0,0,1-3.426-2.262l1.485-.647a2.09,2.09,0,0,0,1.942,1.36c1.294,0,2.066-.778,2.066-2.262v-.594h-.065a2.714,2.714,0,0,1-2.067.9,3.812,3.812,0,0,1-3.688-3.878,3.854,3.854,0,0,1,3.688-3.878,2.8,2.8,0,0,1,2.066.843h.065v-.647Zm-1.485,3.688a2.193,2.193,0,0,0-2.066-2.375,2.375,2.375,0,0,0,0,4.721,2.191,2.191,0,0,0,2.067-2.357Zm4.46-7.827v11.384h-1.681v-11.4Zm6.728,9.056,1.294.9a3.83,3.83,0,0,1-3.23,1.746,3.759,3.759,0,0,1-3.812-3.878,3.553,3.553,0,0,1,6.918-1.419l.2.451-5.172,2.132a1.977,1.977,0,0,0,1.876,1.188,2.34,2.34,0,0,0,1.942-1.1Zm-4.074-1.425,3.492-1.425a1.58,1.58,0,0,0-1.425-.843,2.132,2.132,0,0,0-2.067,2.263Z" transform="translate(-847.362 -865.255)"/></g><g transform="translate(793.203 2559.177)"><path class="b" d="M801.416,873.9l6.229-10.689c.79.463,4.751,2.672,5.422,3.094l-6.223,10.689C806.155,877.9,800.537,875.265,801.416,873.9Z" transform="translate(-800.983 -861.678)"/><path class="c" d="M823.362,872.851l-6.223-10.689a3.177,3.177,0,0,0-4.287-1.116,3.011,3.011,0,0,0-1.14,4.21l6.223,10.689a3.177,3.177,0,0,0,4.287,1.116,3.076,3.076,0,0,0,1.14-4.21Z" transform="translate(-805.024 -860.63)"/><ellipse class="d" cx="3.124" cy="3.046" rx="3.124" ry="3.046" transform="translate(0 10.754)"/></g></g></svg>