<svg xmlns="http://www.w3.org/2000/svg" xmlns:xlink="http://www.w3.org/1999/xlink" width="46.496" height="19.109" viewBox="0 0 46.496 19.109"><defs><style>.a{fill:#3b5998;}.b{clip-path:url(#a);}.c{fill:#fff;}</style><clipPath id="a"><path class="a" d="M1057.086,876.215a.915.915,0,0,1-.915.914H1011.5a.914.914,0,0,1-.914-.914v-17.28a.914.914,0,0,1,.914-.914h44.667a.915.915,0,0,1,.915.914Z" transform="translate(-92.779 1699.607)"/></clipPath></defs><g class="b" transform="translate(-917.811 -2557.627)"><g transform="translate(916.13 2542.276)"><path class="a" d="M48.176,33.546a.916.916,0,0,1-.914.914H2.6a.916.916,0,0,1-.914-.914V16.265a.916.916,0,0,1,.914-.914H47.261a.916.916,0,0,1,.914.914Z"/><path class="c" d="M22.619,19.876h.527V24h-.488V20.837l-.907,2.077h-.488l-.907-2.077V24h-.488V19.876h.519L21.5,22.41Z"/><path class="c" d="M26.269,24h-.442l-.031-.256a1.8,1.8,0,0,1-.976.318c-.659,0-.914-.387-.914-.961,0-.6.3-.922.953-.922a2.427,2.427,0,0,1,.891.17v-.473c0-.4-.124-.566-.581-.566a3.046,3.046,0,0,0-.821.116L24.27,21a3.369,3.369,0,0,1,.953-.139c.713,0,1.046.31,1.046.984V24ZM25.75,22.7a3.023,3.023,0,0,0-.821-.132c-.418,0-.519.2-.519.542,0,.38.124.558.48.558a1.5,1.5,0,0,0,.852-.263V22.7Z"/><path class="c" d="M28.617,21.364a3.684,3.684,0,0,0-.961.325v2.317h-.519V20.93h.426l.054.356a1.572,1.572,0,0,1,.93-.4Z"/><path class="c" d="M29.16,24v-4.37h.519v2.72l1.069-1.418h.612l-1.178,1.519L31.407,24h-.612l-1.116-1.457V24Z"/><path class="c" d="M32.236,22.7c.031.651.194.961.821.961a2.66,2.66,0,0,0,.907-.17l.077.4a2.826,2.826,0,0,1-.992.186c-1.108,0-1.333-.759-1.333-1.62,0-.883.294-1.581,1.232-1.581.837,0,1.186.589,1.186,1.325v.5Zm0-.411h1.395v-.108c0-.573-.178-.914-.69-.914-.573-.008-.7.411-.705,1.023"/><path class="c" d="M36.451,23.968a2.448,2.448,0,0,1-.635.093.676.676,0,0,1-.752-.767V21.349H34.53V20.93h.535v-.752l.519-.077v.821h.876l-.046.418h-.829v1.922c0,.287.07.372.356.372a2.2,2.2,0,0,0,.465-.062Z"/><path class="c" d="M37.343,19.683a.338.338,0,0,1,.349.349.334.334,0,0,1-.349.349.338.338,0,0,1-.349-.349.342.342,0,0,1,.349-.349m-.256,1.248h.519v3.076h-.519Z"/><path class="c" d="M40.349,24V21.759c0-.279-.116-.418-.418-.418a2.346,2.346,0,0,0-.868.2V24h-.519V20.922h.418l.046.271a1.933,1.933,0,0,1,1.054-.333.745.745,0,0,1,.814.845V24h-.527Z"/><path class="c" d="M43.185,20.93h.976v.356l-.411.077a1.092,1.092,0,0,1,.116.519c0,.635-.442,1.015-1.147,1.015a1.407,1.407,0,0,1-.325-.031.366.366,0,0,0-.139.287c0,.147.077.217.279.217h.7a.8.8,0,0,1,.876.821c0,.659-.581.984-1.41.984-.806,0-1.24-.248-1.24-.829a.712.712,0,0,1,.488-.659.477.477,0,0,1-.2-.411.583.583,0,0,1,.356-.511.93.93,0,0,1-.527-.883c0-.659.38-1.015,1.139-1.015a1.747,1.747,0,0,1,.473.062M42.209,23.8a.631.631,0,0,0-.263.511c0,.356.3.488.767.488.542,0,.876-.139.876-.55a.406.406,0,0,0-.465-.426h-.666a.988.988,0,0,1-.248-.023m.511-2.557c-.442,0-.651.178-.651.643a.567.567,0,0,0,.651.643.582.582,0,0,0,.659-.643c0-.449-.232-.643-.659-.643"/><path class="c" d="M20.4,28.664V30.2h-.535v-4.13H21.1a1.156,1.156,0,0,1,1.3,1.294,1.156,1.156,0,0,1-1.3,1.294h-.7Zm0-.434h.682c.62,0,.79-.356.79-.86s-.17-.86-.79-.86H20.4Z"/><path class="c" d="M25.029,30.2h-.442l-.031-.256a1.8,1.8,0,0,1-.976.318c-.659,0-.914-.387-.914-.961,0-.6.3-.922.953-.922a2.464,2.464,0,0,1,.891.17v-.473c0-.4-.124-.566-.581-.566a3.046,3.046,0,0,0-.821.116L23.03,27.2a3.369,3.369,0,0,1,.953-.139c.713,0,1.046.31,1.046.984V30.2ZM24.51,28.9a3.023,3.023,0,0,0-.821-.132c-.418,0-.519.2-.519.542,0,.38.124.558.48.558a1.5,1.5,0,0,0,.852-.263V28.9Z"/><path class="c" d="M27.377,27.563a3.684,3.684,0,0,0-.961.325v2.317H25.9V27.129h.426l.054.356a1.572,1.572,0,0,1,.93-.4Z"/><path class="c" d="M29.5,30.167a2.448,2.448,0,0,1-.635.093.676.676,0,0,1-.752-.767V27.548h-.527v-.418h.535v-.752l.519-.077v.821h.876l-.046.418H28.64v1.922c0,.287.07.372.356.372a2.2,2.2,0,0,0,.465-.062Z"/><path class="c" d="M31.949,30.2V27.959c0-.279-.116-.418-.418-.418a2.346,2.346,0,0,0-.868.2V30.2h-.519V27.122h.418l.046.271a1.933,1.933,0,0,1,1.054-.333.745.745,0,0,1,.814.845V30.2h-.527Z"/><path class="c" d="M33.685,28.9c.031.651.194.961.821.961a2.66,2.66,0,0,0,.907-.17l.077.4a2.826,2.826,0,0,1-.992.186c-1.108,0-1.333-.759-1.333-1.62,0-.883.294-1.581,1.232-1.581.837,0,1.186.589,1.186,1.325v.5Zm0-.411H35.08v-.108c0-.573-.178-.914-.69-.914-.581-.008-.705.411-.705,1.023"/><path class="c" d="M37.792,27.563a3.684,3.684,0,0,0-.961.325v2.317h-.519V27.129h.426l.054.356a1.572,1.572,0,0,1,.93-.4Z"/><path class="c" d="M16.3,19.225H6.184a.625.625,0,0,0-.628.628V29.966a.625.625,0,0,0,.628.628h5.44v-4.4h-1.48V24.479h1.48V23.216a2.073,2.073,0,0,1,2.208-2.27,11.358,11.358,0,0,1,1.325.07V22.55H14.25c-.713,0-.852.341-.852.837v1.093h1.7l-.225,1.713H13.39v4.4h2.9a.625.625,0,0,0,.628-.628V19.853a.623.623,0,0,0-.62-.628"/></g></g></svg>