<svg xmlns="http://www.w3.org/2000/svg" width="28.15" height="26.722" viewBox="0 0 28.15 26.722"><defs><style>.a{fill:#fff;}</style></defs><path class="a" d="M54.855,40.492a2.3,2.3,0,0,0-2.294,2.293v.432l-4.795,2.572a12.594,12.594,0,0,1-5.956,1.493H41.7a1.937,1.937,0,0,0-1.661-.93H35.02a1.924,1.924,0,0,0-1.851,1.426H31.532A2.536,2.536,0,0,0,29,50.33v4.163a2.512,2.512,0,0,0,2.532,2.524h1.637a1.879,1.879,0,0,0,1.294,1.373l.918,6.175a3.1,3.1,0,1,0,6.137-.908l-.791-5.3a1.985,1.985,0,0,0,.972-.841h.112a12.607,12.607,0,0,1,5.956,1.507l4.795,2.586v.432a2.294,2.294,0,1,0,4.588,0V42.785A2.3,2.3,0,0,0,54.855,40.492ZM33.092,55.777h-1.56a1.271,1.271,0,0,1-1.292-1.284V50.33a1.295,1.295,0,0,1,1.292-1.312h1.56Zm6.768,9.554a1.86,1.86,0,0,1-2.626.193,1.838,1.838,0,0,1-.626-1.125L35.729,58.5h3.764l.8,5.344A1.843,1.843,0,0,1,39.859,65.331Zm.859-8.752a.756.756,0,0,1-.021.154.677.677,0,0,1-.66.532H35.02a.7.7,0,0,1-.688-.686V48.244a.672.672,0,0,1,.688-.652h5.017a.668.668,0,0,1,.661.52.684.684,0,0,1,.02.132ZM52.561,60.2l-4.2-2.266a13.824,13.824,0,0,0-6.4-1.649V48.54a13.823,13.823,0,0,0,6.4-1.648l4.2-2.266Zm3.348,1.84a1.047,1.047,0,0,1-1.045,1.053A1.059,1.059,0,0,1,53.8,62.038V42.785a1.054,1.054,0,0,1,2.108,0Z" transform="translate(-28.999 -40.492)"/></svg>