<svg xmlns="http://www.w3.org/2000/svg" width="20.223" height="34.153" viewBox="0 0 20.223 34.153"><defs><style>.a{fill:#27debf;}</style></defs><g transform="translate(0.001)"><path class="a" d="M20.222,2.769A2.769,2.769,0,0,0,17.454,0H2.768A2.769,2.769,0,0,0,0,2.769V31.384a2.769,2.769,0,0,0,2.769,2.769H17.454a2.769,2.769,0,0,0,2.769-2.769ZM11.014,30.33a.9.9,0,1,1-.9-.9A.9.9,0,0,1,11.014,30.33Zm.225-2.943-.351-.63v0L8.9,23.186a.781.781,0,0,1,.992.148l.721.828a.566.566,0,0,0,.992-.372c0-2.027,0-4.672,0-6.031,0-.123.117-.151.186-.151h.277c.093,0,.186.043.187.151,0,.327-.02,4.735-.02,4.78,0,.025,0,.047,0,.071v.232a.566.566,0,1,0,1.131,0v-1.36c0-.037.047-.056.083-.056h.564a.053.053,0,0,1,.06.056v1.8a.566.566,0,1,0,1.131,0v-1.36a.085.085,0,0,1,.078-.075h.559a.077.077,0,0,1,.07.075v1.36a.566.566,0,1,0,1.131,0v-.2a.217.217,0,0,1,.044-.147.094.094,0,0,1,.077-.025h.3a.177.177,0,0,1,.186.175c0,1.165,0,1.186,0,1.758,0,.3,0,.765,0,1.632a1.881,1.881,0,0,1-1.875,1.88H12.876a1.88,1.88,0,0,1-1.638-.968ZM6.982,20.011a1.06,1.06,0,0,1-.783-.357.889.889,0,0,1-.223-.694l.716-6.233h.591V14.2a.566.566,0,1,0,1.131,0V12.728h3.535V14.2a.566.566,0,1,0,1.131,0V12.728h.488l.716,6.225a.872.872,0,0,1-.223.685,1.039,1.039,0,0,1-.679.336c0-1.055.005-2.063,0-2.217a1.285,1.285,0,0,0-1.318-1.281h-.277a1.3,1.3,0,0,0-1.318,1.3c0,.566,0,1.321,0,2.24ZM11.949,11.6H8.414v-.549a1.711,1.711,0,0,1,1.768-1.641,1.711,1.711,0,0,1,1.768,1.641Zm6.825,11.485a1.315,1.315,0,0,0-1.317-1.3h-.3a1.3,1.3,0,0,0-.131,0,1.2,1.2,0,0,0-1.19-1.061h-.559a1.184,1.184,0,0,0-.309.044,1.179,1.179,0,0,0-.217-.221,2.114,2.114,0,0,0,.151-.152,2.01,2.01,0,0,0,.5-1.565L14.635,12.1a.568.568,0,0,0-.562-.5h-.992v-.549a2.842,2.842,0,0,0-2.9-2.772,2.842,2.842,0,0,0-2.9,2.772V11.6h-1.1a.568.568,0,0,0-.562.5l-.774,6.725a2.049,2.049,0,0,0,.5,1.582,2.194,2.194,0,0,0,1.628.736h3.491v1.209a1.916,1.916,0,0,0-2.393.042l-.258.194a.554.554,0,0,0-.15.715l1.756,3.143h-8.3V6.647h17.96v19.8h-.317c0-.849,0-1.306,0-1.608,0-.574,0-.588,0-1.756ZM2.767,1.131H17.455a1.658,1.658,0,0,1,1.637,1.66V5.515H1.131V2.792A1.658,1.658,0,0,1,2.767,1.131ZM17.455,33.092H2.767a1.658,1.658,0,0,1-1.637-1.66V27.577h8.927l.193.353a3.031,3.031,0,0,0,.269.4,2.046,2.046,0,1,0,1.35.976,3,3,0,0,0,1.007.177h2.891a2.992,2.992,0,0,0,2.79-1.909h.533v3.855a1.658,1.658,0,0,1-1.637,1.66Zm0,0"/><path class="a" d="M101.812,38.131h4.773a.566.566,0,1,0,0-1.131h-4.773a.566.566,0,0,0,0,1.131Zm0,0" transform="translate(-94.087 -34.384)"/></g></svg>